<svg xmlns="http://www.w3.org/2000/svg" width="163.464" height="17.352" viewBox="0 0 163.464 17.352">
  <path id="Path_1" data-name="Path 1" d="M22.248-15.7a2.01,2.01,0,0,1,.78-1.032,2.1,2.1,0,0,1,1.188-.36,2.054,2.054,0,0,1,1.38.5,1.708,1.708,0,0,1,.588,1.368,3.159,3.159,0,0,1-.192.96L21.168-1.2a1.933,1.933,0,0,1-.876,1.044,2.73,2.73,0,0,1-1.4.372A2.667,2.667,0,0,1,17.5-.156,1.946,1.946,0,0,1,16.632-1.2l-3.12-8.9L10.248-1.2A2.063,2.063,0,0,1,9.36-.156,2.622,2.622,0,0,1,7.992.216,2.667,2.667,0,0,1,6.6-.156,1.946,1.946,0,0,1,5.736-1.2L.888-14.256a2.762,2.762,0,0,1-.168-.912,1.712,1.712,0,0,1,.636-1.4,2.274,2.274,0,0,1,1.476-.516,2.309,2.309,0,0,1,1.236.348,1.908,1.908,0,0,1,.8,1.044L8.16-6.24,11.64-15.7a2.01,2.01,0,0,1,.78-1.032,2.1,2.1,0,0,1,1.188-.36,2.041,2.041,0,0,1,1.176.36,2.031,2.031,0,0,1,.768,1.056l3.264,9.648ZM35.976.216a9.066,9.066,0,0,1-4.5-1.068,7.288,7.288,0,0,1-2.94-3.024,9.715,9.715,0,0,1-1.032-4.6,9.715,9.715,0,0,1,1.032-4.6,7.212,7.212,0,0,1,2.94-3.012,9.149,9.149,0,0,1,4.5-1.056,9.149,9.149,0,0,1,4.5,1.056A7.138,7.138,0,0,1,43.4-13.068a9.809,9.809,0,0,1,1.02,4.6,9.715,9.715,0,0,1-1.032,4.6,7.288,7.288,0,0,1-2.94,3.024A9.015,9.015,0,0,1,35.976.216Zm0-3.384a3.621,3.621,0,0,0,3-1.356,6.224,6.224,0,0,0,1.08-3.948,6.122,6.122,0,0,0-1.092-3.936,3.643,3.643,0,0,0-2.988-1.344,3.648,3.648,0,0,0-3,1.332A6.163,6.163,0,0,0,31.9-8.472a6.215,6.215,0,0,0,1.08,3.96A3.634,3.634,0,0,0,35.976-3.168ZM67.248-15.7a2.01,2.01,0,0,1,.78-1.032,2.1,2.1,0,0,1,1.188-.36,2.054,2.054,0,0,1,1.38.5,1.708,1.708,0,0,1,.588,1.368,3.159,3.159,0,0,1-.192.96L66.168-1.2a1.933,1.933,0,0,1-.876,1.044,2.73,2.73,0,0,1-1.4.372A2.667,2.667,0,0,1,62.5-.156,1.946,1.946,0,0,1,61.632-1.2l-3.12-8.9L55.248-1.2A2.063,2.063,0,0,1,54.36-.156a2.622,2.622,0,0,1-1.368.372A2.667,2.667,0,0,1,51.6-.156,1.946,1.946,0,0,1,50.736-1.2L45.888-14.256a2.762,2.762,0,0,1-.168-.912,1.712,1.712,0,0,1,.636-1.4,2.274,2.274,0,0,1,1.476-.516,2.309,2.309,0,0,1,1.236.348,1.908,1.908,0,0,1,.8,1.044L53.16-6.24,56.64-15.7a2.01,2.01,0,0,1,.78-1.032,2.1,2.1,0,0,1,1.188-.36,2.041,2.041,0,0,1,1.176.36,2.031,2.031,0,0,1,.768,1.056l3.264,9.648ZM80.976.216a9.066,9.066,0,0,1-4.5-1.068,7.288,7.288,0,0,1-2.94-3.024,9.715,9.715,0,0,1-1.032-4.6,9.715,9.715,0,0,1,1.032-4.6,7.212,7.212,0,0,1,2.94-3.012,9.149,9.149,0,0,1,4.5-1.056,9.15,9.15,0,0,1,4.5,1.056A7.138,7.138,0,0,1,88.4-13.068a9.809,9.809,0,0,1,1.02,4.6,9.715,9.715,0,0,1-1.032,4.6,7.288,7.288,0,0,1-2.94,3.024A9.015,9.015,0,0,1,80.976.216Zm0-3.384a3.621,3.621,0,0,0,3-1.356,6.224,6.224,0,0,0,1.08-3.948,6.122,6.122,0,0,0-1.092-3.936,3.643,3.643,0,0,0-2.988-1.344,3.648,3.648,0,0,0-3,1.332A6.163,6.163,0,0,0,76.9-8.472a6.215,6.215,0,0,0,1.08,3.96A3.634,3.634,0,0,0,80.976-3.168Zm25.3.36a2.231,2.231,0,0,1,.432,1.224A1.59,1.59,0,0,1,106.068-.3a2.274,2.274,0,0,1-1.476.516,2.294,2.294,0,0,1-1.08-.264,2.387,2.387,0,0,1-.864-.792L99.528-5.4a2.473,2.473,0,0,0-.708-.708,1.643,1.643,0,0,0-.876-.228h-1.56v4.3a2.182,2.182,0,0,1-.576,1.6,2.116,2.116,0,0,1-1.584.588,2.157,2.157,0,0,1-1.6-.588,2.157,2.157,0,0,1-.588-1.6V-14.88a2.046,2.046,0,0,1,.528-1.512,2.046,2.046,0,0,1,1.512-.528H100.1a6.921,6.921,0,0,1,4.62,1.332,4.8,4.8,0,0,1,1.548,3.852,5.072,5.072,0,0,1-1.056,3.252A5.181,5.181,0,0,1,102.24-6.7a3.233,3.233,0,0,1,1.38.528,4.922,4.922,0,0,1,1.164,1.224Zm-6.864-6.84a3.7,3.7,0,0,0,2.1-.456,1.7,1.7,0,0,0,.636-1.488,1.766,1.766,0,0,0-.636-1.524,3.62,3.62,0,0,0-2.1-.468H96.336v3.936ZM116.928.216a9.066,9.066,0,0,1-4.5-1.068,7.288,7.288,0,0,1-2.94-3.024,9.715,9.715,0,0,1-1.032-4.6,9.715,9.715,0,0,1,1.032-4.6,7.212,7.212,0,0,1,2.94-3.012,9.149,9.149,0,0,1,4.5-1.056,9.15,9.15,0,0,1,4.5,1.056,7.138,7.138,0,0,1,2.928,3.012,9.809,9.809,0,0,1,1.02,4.6,9.715,9.715,0,0,1-1.032,4.6A7.288,7.288,0,0,1,121.4-.852,9.015,9.015,0,0,1,116.928.216Zm0-3.384a3.621,3.621,0,0,0,3-1.356,6.224,6.224,0,0,0,1.08-3.948,6.122,6.122,0,0,0-1.092-3.936,3.643,3.643,0,0,0-2.988-1.344,3.648,3.648,0,0,0-3,1.332,6.163,6.163,0,0,0-1.08,3.948,6.215,6.215,0,0,0,1.08,3.96A3.634,3.634,0,0,0,116.928-3.168Zm19.1,3.384a9.066,9.066,0,0,1-4.5-1.068,7.288,7.288,0,0,1-2.94-3.024,9.715,9.715,0,0,1-1.032-4.6,9.715,9.715,0,0,1,1.032-4.6,7.212,7.212,0,0,1,2.94-3.012,9.149,9.149,0,0,1,4.5-1.056,9.149,9.149,0,0,1,4.5,1.056,7.138,7.138,0,0,1,2.928,3.012,9.809,9.809,0,0,1,1.02,4.6,9.715,9.715,0,0,1-1.032,4.6,7.288,7.288,0,0,1-2.94,3.024A9.015,9.015,0,0,1,136.032.216Zm0-3.384a3.621,3.621,0,0,0,3-1.356,6.224,6.224,0,0,0,1.08-3.948,6.122,6.122,0,0,0-1.092-3.936,3.642,3.642,0,0,0-2.988-1.344,3.648,3.648,0,0,0-3,1.332,6.163,6.163,0,0,0-1.08,3.948,6.215,6.215,0,0,0,1.08,3.96A3.634,3.634,0,0,0,136.032-3.168ZM162.12-17.04a1.971,1.971,0,0,1,1.488.6,2.159,2.159,0,0,1,.576,1.56V-1.824a1.946,1.946,0,0,1-.528,1.44,1.882,1.882,0,0,1-1.392.528,1.892,1.892,0,0,1-1.38-.528,1.921,1.921,0,0,1-.54-1.44V-8.88l-2.736,5.04a3.1,3.1,0,0,1-.864,1.092,1.816,1.816,0,0,1-1.08.324,1.816,1.816,0,0,1-1.08-.324,3.1,3.1,0,0,1-.864-1.092l-2.712-4.9v6.912a1.93,1.93,0,0,1-.54,1.428,1.9,1.9,0,0,1-1.4.54,1.892,1.892,0,0,1-1.38-.528,1.921,1.921,0,0,1-.54-1.44V-14.88a2.134,2.134,0,0,1,.588-1.56,2.01,2.01,0,0,1,1.5-.6,2,2,0,0,1,1.176.372A2.9,2.9,0,0,1,151.3-15.6l4.416,8.3,4.392-8.3A2.249,2.249,0,0,1,162.12-17.04Z" transform="translate(-0.72 17.136)"/>
</svg>
